<?xml version="1.0" encoding="UTF-8" standalone="no"?><svg xmlns="http://www.w3.org/2000/svg" xmlns:xlink="http://www.w3.org/1999/xlink" contentScriptType="application/ecmascript" contentStyleType="text/css" height="703px" preserveAspectRatio="none" style="width:566px;height:703px;" version="1.1" viewBox="0 0 566 703" width="566px" zoomAndPan="magnify"><defs><filter height="300%" id="f1ny4pung9i81b" width="300%" x="-1" y="-1"><feGaussianBlur result="blurOut" stdDeviation="2.0"/><feColorMatrix in="blurOut" result="blurOut2" type="matrix" values="0 0 0 0 0 0 0 0 0 0 0 0 0 0 0 0 0 0 .4 0"/><feOffset dx="4.0" dy="4.0" in="blurOut2" result="blurOut3"/><feBlend in="SourceGraphic" in2="blurOut3" mode="normal"/></filter></defs><g><rect fill="#FFFFFF" filter="url(#f1ny4pung9i81b)" height="30.3516" style="stroke:#A80036;stroke-width:1.0;" width="10" x="401" y="73.9609"/><rect fill="#FFFFFF" filter="url(#f1ny4pung9i81b)" height="30.3516" style="stroke:#A80036;stroke-width:1.0;" width="10" x="401" y="134.6641"/><rect fill="#FFFFFF" filter="url(#f1ny4pung9i81b)" height="30.3516" style="stroke:#A80036;stroke-width:1.0;" width="10" x="517.5" y="485.5"/><rect fill="#FFFFFF" filter="url(#f1ny4pung9i81b)" height="368.8359" style="stroke:#000000;stroke-width:2.0;" width="542" x="10" y="180.0156"/><rect fill="#FFFFFF" height="223.9453" style="stroke:none;stroke-width:1.0;" width="542" x="10" y="223.3672"/><rect fill="#FFFFFF" filter="url(#f1ny4pung9i81b)" height="92.0547" style="stroke:#000000;stroke-width:2.0;" width="425" x="20" y="323.2578"/><rect fill="#FFFFFF" height="101.5391" style="stroke:none;stroke-width:1.0;" width="542" x="10" y="447.3125"/><line style="stroke:#A80036;stroke-width:1.0;stroke-dasharray:5.0,5.0;" x1="75" x2="75" y1="41.6094" y2="659.2031"/><line style="stroke:#A80036;stroke-width:1.0;stroke-dasharray:5.0,5.0;" x1="406" x2="406" y1="41.6094" y2="659.2031"/><line style="stroke:#A80036;stroke-width:1.0;stroke-dasharray:5.0,5.0;" x1="469" x2="469" y1="41.6094" y2="659.2031"/><line style="stroke:#A80036;stroke-width:1.0;stroke-dasharray:5.0,5.0;" x1="522" x2="522" y1="41.6094" y2="659.2031"/><rect fill="#FEFECE" filter="url(#f1ny4pung9i81b)" height="31.6094" style="stroke:#A80036;stroke-width:1.5;" width="86" x="30" y="5"/><text fill="#000000" font-family="sans-serif" font-size="14" lengthAdjust="spacingAndGlyphs" textLength="72" x="37" y="26.5332">VariablePei</text><rect fill="#FEFECE" filter="url(#f1ny4pung9i81b)" height="31.6094" style="stroke:#A80036;stroke-width:1.5;" width="86" x="30" y="658.2031"/><text fill="#000000" font-family="sans-serif" font-size="14" lengthAdjust="spacingAndGlyphs" textLength="72" x="37" y="679.7363">VariablePei</text><rect fill="#FEFECE" filter="url(#f1ny4pung9i81b)" height="31.6094" style="stroke:#A80036;stroke-width:1.5;" width="54" x="377" y="5"/><text fill="#000000" font-family="sans-serif" font-size="14" lengthAdjust="spacingAndGlyphs" textLength="40" x="384" y="26.5332">RPMC</text><rect fill="#FEFECE" filter="url(#f1ny4pung9i81b)" height="31.6094" style="stroke:#A80036;stroke-width:1.5;" width="54" x="377" y="658.2031"/><text fill="#000000" font-family="sans-serif" font-size="14" lengthAdjust="spacingAndGlyphs" textLength="40" x="384" y="679.7363">RPMC</text><rect fill="#FEFECE" filter="url(#f1ny4pung9i81b)" height="31.6094" style="stroke:#A80036;stroke-width:1.5;" width="44" x="445" y="5"/><text fill="#000000" font-family="sans-serif" font-size="14" lengthAdjust="spacingAndGlyphs" textLength="30" x="452" y="26.5332">UEFI</text><rect fill="#FEFECE" filter="url(#f1ny4pung9i81b)" height="31.6094" style="stroke:#A80036;stroke-width:1.5;" width="44" x="445" y="658.2031"/><text fill="#000000" font-family="sans-serif" font-size="14" lengthAdjust="spacingAndGlyphs" textLength="30" x="452" y="679.7363">UEFI</text><rect fill="#FEFECE" filter="url(#f1ny4pung9i81b)" height="31.6094" style="stroke:#A80036;stroke-width:1.5;" width="35" x="503" y="5"/><text fill="#000000" font-family="sans-serif" font-size="14" lengthAdjust="spacingAndGlyphs" textLength="21" x="510" y="26.5332">SPI</text><rect fill="#FEFECE" filter="url(#f1ny4pung9i81b)" height="31.6094" style="stroke:#A80036;stroke-width:1.5;" width="35" x="503" y="658.2031"/><text fill="#000000" font-family="sans-serif" font-size="14" lengthAdjust="spacingAndGlyphs" textLength="21" x="510" y="679.7363">SPI</text><rect fill="#FFFFFF" filter="url(#f1ny4pung9i81b)" height="30.3516" style="stroke:#A80036;stroke-width:1.0;" width="10" x="401" y="73.9609"/><rect fill="#FFFFFF" filter="url(#f1ny4pung9i81b)" height="30.3516" style="stroke:#A80036;stroke-width:1.0;" width="10" x="401" y="134.6641"/><rect fill="#FFFFFF" filter="url(#f1ny4pung9i81b)" height="30.3516" style="stroke:#A80036;stroke-width:1.0;" width="10" x="517.5" y="485.5"/><polygon fill="#A80036" points="389,69.9609,399,73.9609,389,77.9609,393,73.9609" style="stroke:#A80036;stroke-width:1.0;"/><line style="stroke:#A80036;stroke-width:1.0;" x1="75" x2="395" y1="73.9609" y2="73.9609"/><text fill="#000000" font-family="sans-serif" font-size="13" lengthAdjust="spacingAndGlyphs" textLength="168" x="82" y="69.1045">RequestMonotonicCounter(1)</text><polygon fill="#A80036" points="86,100.3125,76,104.3125,86,108.3125,82,104.3125" style="stroke:#A80036;stroke-width:1.0;"/><line style="stroke:#A80036;stroke-width:1.0;stroke-dasharray:2.0,2.0;" x1="80" x2="405" y1="104.3125" y2="104.3125"/><text fill="#000000" font-family="sans-serif" font-size="13" lengthAdjust="spacingAndGlyphs" textLength="52" x="92" y="99.4561">Counter1</text><polygon fill="#A80036" points="389,130.6641,399,134.6641,389,138.6641,393,134.6641" style="stroke:#A80036;stroke-width:1.0;"/><line style="stroke:#A80036;stroke-width:1.0;" x1="75" x2="395" y1="134.6641" y2="134.6641"/><text fill="#000000" font-family="sans-serif" font-size="13" lengthAdjust="spacingAndGlyphs" textLength="168" x="82" y="129.8076">RequestMonotonicCounter(2)</text><polygon fill="#A80036" points="86,161.0156,76,165.0156,86,169.0156,82,165.0156" style="stroke:#A80036;stroke-width:1.0;"/><line style="stroke:#A80036;stroke-width:1.0;stroke-dasharray:2.0,2.0;" x1="80" x2="405" y1="165.0156" y2="165.0156"/><text fill="#000000" font-family="sans-serif" font-size="13" lengthAdjust="spacingAndGlyphs" textLength="52" x="92" y="160.1592">Counter2</text><path d="M10,180.0156 L71,180.0156 L71,188.0156 L61,198.0156 L10,198.0156 L10,180.0156 " fill="#EEEEEE" style="stroke:#000000;stroke-width:1.0;"/><rect fill="none" height="368.8359" style="stroke:#000000;stroke-width:2.0;" width="542" x="10" y="180.0156"/><text fill="#000000" font-family="sans-serif" font-size="13" font-weight="bold" lengthAdjust="spacingAndGlyphs" textLength="16" x="25" y="194.5107">alt</text><text fill="#000000" font-family="sans-serif" font-size="11" font-weight="bold" lengthAdjust="spacingAndGlyphs" textLength="137" x="86" y="193.4346">[enumerate all variables]</text><line style="stroke:#000000;stroke-width:1.0;stroke-dasharray:2.0,2.0;" x1="10" x2="552" y1="224.3672" y2="224.3672"/><text fill="#000000" font-family="sans-serif" font-size="11" font-weight="bold" lengthAdjust="spacingAndGlyphs" textLength="275" x="15" y="235.7861">[found variables in HOB (recovery or factory boot)]</text><polygon fill="#A80036" points="457,273.9063,467,277.9063,457,281.9063,461,277.9063" style="stroke:#A80036;stroke-width:1.0;"/><line style="stroke:#A80036;stroke-width:1.0;" x1="75" x2="463" y1="277.9063" y2="277.9063"/><text fill="#000000" font-family="sans-serif" font-size="13" lengthAdjust="spacingAndGlyphs" textLength="226" x="82" y="256.6982">GetAllVariables(HOB(gEfiVariableGuid)</text><text fill="#000000" font-family="sans-serif" font-size="13" lengthAdjust="spacingAndGlyphs" textLength="231" x="90" y="273.0498">or HOB(gEfiAuthenticatedVariableGuid))</text><polygon fill="#A80036" points="86,304.2578,76,308.2578,86,312.2578,82,308.2578" style="stroke:#A80036;stroke-width:1.0;"/><line style="stroke:#A80036;stroke-width:1.0;stroke-dasharray:2.0,2.0;" x1="80" x2="468" y1="308.2578" y2="308.2578"/><text fill="#000000" font-family="sans-serif" font-size="13" lengthAdjust="spacingAndGlyphs" textLength="88" x="92" y="303.4014">(Var1, .., VarN)</text><path d="M20,323.2578 L85,323.2578 L85,331.2578 L75,341.2578 L20,341.2578 L20,323.2578 " fill="#EEEEEE" style="stroke:#000000;stroke-width:1.0;"/><rect fill="none" height="92.0547" style="stroke:#000000;stroke-width:2.0;" width="425" x="20" y="323.2578"/><text fill="#000000" font-family="sans-serif" font-size="13" font-weight="bold" lengthAdjust="spacingAndGlyphs" textLength="20" x="35" y="337.7529">opt</text><text fill="#000000" font-family="sans-serif" font-size="11" font-weight="bold" lengthAdjust="spacingAndGlyphs" textLength="125" x="100" y="336.6768">[Counter1 != Counter2]</text><polygon fill="#A80036" points="394,359.9609,404,363.9609,394,367.9609,398,363.9609" style="stroke:#A80036;stroke-width:1.0;"/><line style="stroke:#A80036;stroke-width:1.0;" x1="75" x2="400" y1="363.9609" y2="363.9609"/><text fill="#000000" font-family="sans-serif" font-size="13" lengthAdjust="spacingAndGlyphs" textLength="307" x="82" y="359.1045">IncrementMonotonicCounter(min(Counter1,Counter2))</text><line style="stroke:#A80036;stroke-width:1.0;" x1="75" x2="117" y1="394.3125" y2="394.3125"/><line style="stroke:#A80036;stroke-width:1.0;" x1="117" x2="117" y1="394.3125" y2="407.3125"/><line style="stroke:#A80036;stroke-width:1.0;" x1="76" x2="117" y1="407.3125" y2="407.3125"/><polygon fill="#A80036" points="86,403.3125,76,407.3125,86,411.3125,82,407.3125" style="stroke:#A80036;stroke-width:1.0;"/><text fill="#000000" font-family="sans-serif" font-size="13" lengthAdjust="spacingAndGlyphs" textLength="275" x="82" y="389.4561">min(Counter1,Counter2) += |Counter1-Counter2|</text><line style="stroke:#000000;stroke-width:1.0;stroke-dasharray:2.0,2.0;" x1="10" x2="552" y1="448.3125" y2="448.3125"/><text fill="#000000" font-family="sans-serif" font-size="11" font-weight="bold" lengthAdjust="spacingAndGlyphs" textLength="126" x="15" y="459.7314">[found variables in SPI]</text><polygon fill="#A80036" points="505.5,481.5,515.5,485.5,505.5,489.5,509.5,485.5" style="stroke:#A80036;stroke-width:1.0;"/><line style="stroke:#A80036;stroke-width:1.0;" x1="75" x2="511.5" y1="485.5" y2="485.5"/><text fill="#000000" font-family="sans-serif" font-size="13" lengthAdjust="spacingAndGlyphs" textLength="119" x="82" y="480.6436">GetAllVariables(SPI)</text><polygon fill="#A80036" points="86,511.8516,76,515.8516,86,519.8516,82,515.8516" style="stroke:#A80036;stroke-width:1.0;"/><line style="stroke:#A80036;stroke-width:1.0;stroke-dasharray:2.0,2.0;" x1="80" x2="521.5" y1="515.8516" y2="515.8516"/><text fill="#000000" font-family="sans-serif" font-size="13" lengthAdjust="spacingAndGlyphs" textLength="231" x="92" y="510.9951">(Var1, .., VarN, VarErrorFlag, VarHmac)</text><line style="stroke:#A80036;stroke-width:1.0;" x1="75" x2="117" y1="603.2031" y2="603.2031"/><line style="stroke:#A80036;stroke-width:1.0;" x1="117" x2="117" y1="603.2031" y2="616.2031"/><line style="stroke:#A80036;stroke-width:1.0;" x1="76" x2="117" y1="616.2031" y2="616.2031"/><polygon fill="#A80036" points="86,612.2031,76,616.2031,86,620.2031,82,616.2031" style="stroke:#A80036;stroke-width:1.0;"/><text fill="#000000" font-family="sans-serif" font-size="13" lengthAdjust="spacingAndGlyphs" textLength="258" x="82" y="598.3467">Calc &amp; cache (HASH(Var1), .., HASH(VarN))</text><!--MD5=[b206dfaf68d467c7df42443517255bc6]
@startuml Protected Variable Init Sequence

  VariablePei -> RPMC ++: RequestMonotonicCounter(1)
  return Counter1

  VariablePei -> RPMC ++: RequestMonotonicCounter(2)
  return Counter2

  alt enumerate all variables
    |||
  else found variables in HOB (recovery or factory boot)
    VariablePei -> UEFI: GetAllVariables(HOB(gEfiVariableGuid)\n  or HOB(gEfiAuthenticatedVariableGuid))
    return (Var1, .., VarN)
    opt Counter1 != Counter2
      VariablePei -> RPMC: IncrementMonotonicCounter(min(Counter1,Counter2))
      VariablePei -> VariablePei: min(Counter1,Counter2) += |Counter1-Counter2|
    end
    |||
  else found variables in SPI
    VariablePei -> SPI ++ : GetAllVariables(SPI)
    return (Var1, .., VarN, VarErrorFlag, VarHmac)
    |||
  end

  |||
  VariablePei -> VariablePei: Calc & cache (HASH(Var1), .., HASH(VarN))
  |||

@enduml

PlantUML version 1.2020.26(Tue Dec 22 01:45:07 CST 2020)
(GPL source distribution)
Java Runtime: OpenJDK Runtime Environment
JVM: OpenJDK 64-Bit Server VM
Default Encoding: Cp1252
Language: en
Country: US
--></g></svg>