<?xml version="1.0" encoding="UTF-8" standalone="no"?><svg xmlns="http://www.w3.org/2000/svg" xmlns:xlink="http://www.w3.org/1999/xlink" contentStyleType="text/css" height="349px" preserveAspectRatio="none" style="width:1210px;height:349px;background:#FFFFFF;" version="1.1" viewBox="0 0 1210 349" width="1210px" zoomAndPan="magnify"><defs/><g><!--MD5=[afb8c5888421c8b8fc722aead24d95d7]
class ProtectedVariableLib--><g id="elem_ProtectedVariableLib"><rect fill="#F1F1F1" height="48" id="ProtectedVariableLib" rx="2.5" ry="2.5" style="stroke:#181818;stroke-width:0.5;" width="186" x="482" y="7"/><ellipse cx="497" cy="23" fill="#ADD1B2" rx="11" ry="11" style="stroke:#181818;stroke-width:1.0;"/><path d="M499.3438,18.6719 C498.4063,18.2344 497.8125,18.0938 496.9375,18.0938 C494.3125,18.0938 492.3125,20.1719 492.3125,22.8906 L492.3125,24.0156 C492.3125,26.5938 494.4219,28.4844 497.3125,28.4844 C498.5313,28.4844 499.6875,28.1875 500.4375,27.6406 C501.0156,27.2344 501.3438,26.7813 501.3438,26.3906 C501.3438,25.9375 500.9531,25.5469 500.4844,25.5469 C500.2656,25.5469 500.0625,25.625 499.875,25.8125 C499.4219,26.2969 499.4219,26.2969 499.2344,26.3906 C498.8125,26.6563 498.125,26.7813 497.3594,26.7813 C495.3125,26.7813 494.0156,25.6875 494.0156,23.9844 L494.0156,22.8906 C494.0156,21.1094 495.2656,19.7969 497,19.7969 C497.5781,19.7969 498.1875,19.9531 498.6563,20.2031 C499.1406,20.4844 499.3125,20.7031 499.4063,21.1094 C499.4688,21.5156 499.5,21.6406 499.6406,21.7656 C499.7813,21.9063 500.0156,22.0156 500.2344,22.0156 C500.5,22.0156 500.7656,21.875 500.9375,21.6563 C501.0469,21.5 501.0781,21.3125 501.0781,20.8906 L501.0781,19.4688 C501.0781,19.0313 501.0625,18.9063 500.9688,18.75 C500.8125,18.4844 500.5313,18.3438 500.2344,18.3438 C499.9375,18.3438 499.7344,18.4375 499.5156,18.75 L499.3438,18.6719 Z " fill="#000000"/><text fill="#000000" font-family="sans-serif" font-size="14" lengthAdjust="spacing" textLength="154" x="511" y="27.8467">ProtectedVariableLib</text><line style="stroke:#181818;stroke-width:0.5;" x1="483" x2="667" y1="39" y2="39"/><line style="stroke:#181818;stroke-width:0.5;" x1="483" x2="667" y1="47" y2="47"/></g><!--MD5=[34f4a1c1dfb393523b65164ab4c8089f]
class PeiProtectedVariableLib--><g id="elem_PeiProtectedVariableLib"><rect fill="#F1F1F1" height="145.7813" id="PeiProtectedVariableLib" rx="2.5" ry="2.5" style="stroke:#181818;stroke-width:0.5;" width="266" x="7" y="155.5"/><ellipse cx="48.1" cy="171.5" fill="#ADD1B2" rx="11" ry="11" style="stroke:#181818;stroke-width:1.0;"/><path d="M50.4438,167.1719 C49.5063,166.7344 48.9125,166.5938 48.0375,166.5938 C45.4125,166.5938 43.4125,168.6719 43.4125,171.3906 L43.4125,172.5156 C43.4125,175.0938 45.5219,176.9844 48.4125,176.9844 C49.6313,176.9844 50.7875,176.6875 51.5375,176.1406 C52.1156,175.7344 52.4438,175.2813 52.4438,174.8906 C52.4438,174.4375 52.0531,174.0469 51.5844,174.0469 C51.3656,174.0469 51.1625,174.125 50.975,174.3125 C50.5219,174.7969 50.5219,174.7969 50.3344,174.8906 C49.9125,175.1563 49.225,175.2813 48.4594,175.2813 C46.4125,175.2813 45.1156,174.1875 45.1156,172.4844 L45.1156,171.3906 C45.1156,169.6094 46.3656,168.2969 48.1,168.2969 C48.6781,168.2969 49.2875,168.4531 49.7563,168.7031 C50.2406,168.9844 50.4125,169.2031 50.5063,169.6094 C50.5688,170.0156 50.6,170.1406 50.7406,170.2656 C50.8813,170.4063 51.1156,170.5156 51.3344,170.5156 C51.6,170.5156 51.8656,170.375 52.0375,170.1563 C52.1469,170 52.1781,169.8125 52.1781,169.3906 L52.1781,167.9688 C52.1781,167.5313 52.1625,167.4063 52.0688,167.25 C51.9125,166.9844 51.6313,166.8438 51.3344,166.8438 C51.0375,166.8438 50.8344,166.9375 50.6156,167.25 L50.4438,167.1719 Z " fill="#000000"/><text fill="#000000" font-family="sans-serif" font-size="14" lengthAdjust="spacing" textLength="176" x="67.9" y="176.3467">PeiProtectedVariableLib</text><line style="stroke:#181818;stroke-width:0.5;" x1="8" x2="272" y1="187.5" y2="187.5"/><line style="stroke:#181818;stroke-width:0.5;" x1="8" x2="272" y1="195.5" y2="195.5"/><text fill="#000000" font-family="sans-serif" font-size="14" lengthAdjust="spacing" textLength="225" x="13" y="212.4951">ProtectedVariableLibInitialize()</text><text fill="#000000" font-family="sans-serif" font-size="14" lengthAdjust="spacing" textLength="250" x="13" y="228.792">ProtectedVariableLibGetByName()</text><text fill="#000000" font-family="sans-serif" font-size="14" lengthAdjust="spacing" textLength="254" x="13" y="245.0889">ProtectedVariableLibGetByBuffer()</text><text fill="#000000" font-family="sans-serif" font-size="14" lengthAdjust="spacing" textLength="237" x="13" y="261.3857">ProtectedVariableLibGetByInfo()</text><text fill="#000000" font-family="sans-serif" font-size="14" lengthAdjust="spacing" textLength="228" x="13" y="277.6826">ProtectedVariableLibFindNext()</text><text fill="#000000" font-family="sans-serif" font-size="14" lengthAdjust="spacing" textLength="245" x="13" y="293.9795">ProtectedVariableLibFindNextEx()</text></g><!--MD5=[ec6aead86a0f9085d5a540f89164aa0d]
class SmmProtectedVariableLib--><g id="elem_SmmProtectedVariableLib"><rect fill="#F1F1F1" height="210.9688" id="SmmProtectedVariableLib" rx="2.5" ry="2.5" style="stroke:#181818;stroke-width:0.5;" width="266" x="308" y="123"/><ellipse cx="342.35" cy="139" fill="#ADD1B2" rx="11" ry="11" style="stroke:#181818;stroke-width:1.0;"/><path d="M344.6938,134.6719 C343.7563,134.2344 343.1625,134.0938 342.2875,134.0938 C339.6625,134.0938 337.6625,136.1719 337.6625,138.8906 L337.6625,140.0156 C337.6625,142.5938 339.7719,144.4844 342.6625,144.4844 C343.8813,144.4844 345.0375,144.1875 345.7875,143.6406 C346.3656,143.2344 346.6938,142.7813 346.6938,142.3906 C346.6938,141.9375 346.3031,141.5469 345.8344,141.5469 C345.6156,141.5469 345.4125,141.625 345.225,141.8125 C344.7719,142.2969 344.7719,142.2969 344.5844,142.3906 C344.1625,142.6563 343.475,142.7813 342.7094,142.7813 C340.6625,142.7813 339.3656,141.6875 339.3656,139.9844 L339.3656,138.8906 C339.3656,137.1094 340.6156,135.7969 342.35,135.7969 C342.9281,135.7969 343.5375,135.9531 344.0063,136.2031 C344.4906,136.4844 344.6625,136.7031 344.7563,137.1094 C344.8188,137.5156 344.85,137.6406 344.9906,137.7656 C345.1313,137.9063 345.3656,138.0156 345.5844,138.0156 C345.85,138.0156 346.1156,137.875 346.2875,137.6563 C346.3969,137.5 346.4281,137.3125 346.4281,136.8906 L346.4281,135.4688 C346.4281,135.0313 346.4125,134.9063 346.3188,134.75 C346.1625,134.4844 345.8813,134.3438 345.5844,134.3438 C345.2875,134.3438 345.0844,134.4375 344.8656,134.75 L344.6938,134.6719 Z " fill="#000000"/><text fill="#000000" font-family="sans-serif" font-size="14" lengthAdjust="spacing" textLength="191" x="360.65" y="143.8467">SmmProtectedVariableLib</text><line style="stroke:#181818;stroke-width:0.5;" x1="309" x2="573" y1="155" y2="155"/><line style="stroke:#181818;stroke-width:0.5;" x1="309" x2="573" y1="163" y2="163"/><text fill="#000000" font-family="sans-serif" font-size="14" lengthAdjust="spacing" textLength="225" x="314" y="179.9951">ProtectedVariableLibInitialize()</text><text fill="#000000" font-family="sans-serif" font-size="14" lengthAdjust="spacing" textLength="228" x="314" y="196.292">ProtectedVariableLibFindNext()</text><text fill="#000000" font-family="sans-serif" font-size="14" lengthAdjust="spacing" textLength="245" x="314" y="212.5889">ProtectedVariableLibFindNextEx()</text><text fill="#000000" font-family="sans-serif" font-size="14" lengthAdjust="spacing" textLength="250" x="314" y="228.8857">ProtectedVariableLibGetByName()</text><text fill="#000000" font-family="sans-serif" font-size="14" lengthAdjust="spacing" textLength="254" x="314" y="245.1826">ProtectedVariableLibGetByBuffer()</text><text fill="#000000" font-family="sans-serif" font-size="14" lengthAdjust="spacing" textLength="237" x="314" y="261.4795">ProtectedVariableLibGetByInfo()</text><text fill="#000000" font-family="sans-serif" font-size="14" lengthAdjust="spacing" textLength="228" x="314" y="277.7764">ProtectedVariableLibWriteInit()</text><text fill="#000000" font-family="sans-serif" font-size="14" lengthAdjust="spacing" textLength="237" x="314" y="294.0732">ProtectedVariableLibWriteFinal()</text><text fill="#000000" font-family="sans-serif" font-size="14" lengthAdjust="spacing" textLength="216" x="314" y="310.3701">ProtectedVariableLibUpdate()</text><text fill="#000000" font-family="sans-serif" font-size="14" lengthAdjust="spacing" textLength="221" x="314" y="326.667">ProtectedVariableLibReclaim()</text></g><!--MD5=[0ac4a10d286f63eb68a54a5fff4564aa]
class SmmRuntimeProtectedVariableLib--><g id="elem_SmmRuntimeProtectedVariableLib"><rect fill="#F1F1F1" height="80.5938" id="SmmRuntimeProtectedVariableLib" rx="2.5" ry="2.5" style="stroke:#181818;stroke-width:0.5;" width="284" x="609" y="188"/><ellipse cx="624" cy="204" fill="#ADD1B2" rx="11" ry="11" style="stroke:#181818;stroke-width:1.0;"/><path d="M626.3438,199.6719 C625.4063,199.2344 624.8125,199.0938 623.9375,199.0938 C621.3125,199.0938 619.3125,201.1719 619.3125,203.8906 L619.3125,205.0156 C619.3125,207.5938 621.4219,209.4844 624.3125,209.4844 C625.5313,209.4844 626.6875,209.1875 627.4375,208.6406 C628.0156,208.2344 628.3438,207.7813 628.3438,207.3906 C628.3438,206.9375 627.9531,206.5469 627.4844,206.5469 C627.2656,206.5469 627.0625,206.625 626.875,206.8125 C626.4219,207.2969 626.4219,207.2969 626.2344,207.3906 C625.8125,207.6563 625.125,207.7813 624.3594,207.7813 C622.3125,207.7813 621.0156,206.6875 621.0156,204.9844 L621.0156,203.8906 C621.0156,202.1094 622.2656,200.7969 624,200.7969 C624.5781,200.7969 625.1875,200.9531 625.6563,201.2031 C626.1406,201.4844 626.3125,201.7031 626.4063,202.1094 C626.4688,202.5156 626.5,202.6406 626.6406,202.7656 C626.7813,202.9063 627.0156,203.0156 627.2344,203.0156 C627.5,203.0156 627.7656,202.875 627.9375,202.6563 C628.0469,202.5 628.0781,202.3125 628.0781,201.8906 L628.0781,200.4688 C628.0781,200.0313 628.0625,199.9063 627.9688,199.75 C627.8125,199.4844 627.5313,199.3438 627.2344,199.3438 C626.9375,199.3438 626.7344,199.4375 626.5156,199.75 L626.3438,199.6719 Z " fill="#000000"/><text fill="#000000" font-family="sans-serif" font-size="14" lengthAdjust="spacing" textLength="252" x="638" y="208.8467">SmmRuntimeProtectedVariableLib</text><line style="stroke:#181818;stroke-width:0.5;" x1="610" x2="892" y1="220" y2="220"/><line style="stroke:#181818;stroke-width:0.5;" x1="610" x2="892" y1="228" y2="228"/><text fill="#000000" font-family="sans-serif" font-size="14" lengthAdjust="spacing" textLength="225" x="615" y="244.9951">ProtectedVariableLibInitialize()</text><text fill="#000000" font-family="sans-serif" font-size="14" lengthAdjust="spacing" textLength="250" x="615" y="261.292">ProtectedVariableLibGetByName()</text></g><!--MD5=[6e571fb3aff5142bdcd73a1164a61e9f]
class DxeRuntimeProtectedVariableLib--><g id="elem_DxeRuntimeProtectedVariableLib"><rect fill="#F1F1F1" height="227.2656" id="DxeRuntimeProtectedVariableLib" rx="2.5" ry="2.5" style="stroke:#181818;stroke-width:0.5;" width="275" x="928.5" y="115"/><ellipse cx="943.5" cy="131" fill="#ADD1B2" rx="11" ry="11" style="stroke:#181818;stroke-width:1.0;"/><path d="M945.8438,126.6719 C944.9063,126.2344 944.3125,126.0938 943.4375,126.0938 C940.8125,126.0938 938.8125,128.1719 938.8125,130.8906 L938.8125,132.0156 C938.8125,134.5938 940.9219,136.4844 943.8125,136.4844 C945.0313,136.4844 946.1875,136.1875 946.9375,135.6406 C947.5156,135.2344 947.8438,134.7813 947.8438,134.3906 C947.8438,133.9375 947.4531,133.5469 946.9844,133.5469 C946.7656,133.5469 946.5625,133.625 946.375,133.8125 C945.9219,134.2969 945.9219,134.2969 945.7344,134.3906 C945.3125,134.6563 944.625,134.7813 943.8594,134.7813 C941.8125,134.7813 940.5156,133.6875 940.5156,131.9844 L940.5156,130.8906 C940.5156,129.1094 941.7656,127.7969 943.5,127.7969 C944.0781,127.7969 944.6875,127.9531 945.1563,128.2031 C945.6406,128.4844 945.8125,128.7031 945.9063,129.1094 C945.9688,129.5156 946,129.6406 946.1406,129.7656 C946.2813,129.9063 946.5156,130.0156 946.7344,130.0156 C947,130.0156 947.2656,129.875 947.4375,129.6563 C947.5469,129.5 947.5781,129.3125 947.5781,128.8906 L947.5781,127.4688 C947.5781,127.0313 947.5625,126.9063 947.4688,126.75 C947.3125,126.4844 947.0313,126.3438 946.7344,126.3438 C946.4375,126.3438 946.2344,126.4375 946.0156,126.75 L945.8438,126.6719 Z " fill="#000000"/><text fill="#000000" font-family="sans-serif" font-size="14" lengthAdjust="spacing" textLength="243" x="957.5" y="135.8467">DxeRuntimeProtectedVariableLib</text><line style="stroke:#181818;stroke-width:0.5;" x1="929.5" x2="1202.5" y1="147" y2="147"/><line style="stroke:#181818;stroke-width:0.5;" x1="929.5" x2="1202.5" y1="155" y2="155"/><text fill="#000000" font-family="sans-serif" font-size="14" lengthAdjust="spacing" textLength="225" x="934.5" y="171.9951">ProtectedVariableLibInitialize()</text><text fill="#000000" font-family="sans-serif" font-size="14" lengthAdjust="spacing" textLength="228" x="934.5" y="188.292">ProtectedVariableLibFindNext()</text><text fill="#000000" font-family="sans-serif" font-size="14" lengthAdjust="spacing" textLength="245" x="934.5" y="204.5889">ProtectedVariableLibFindNextEx()</text><text fill="#000000" font-family="sans-serif" font-size="14" lengthAdjust="spacing" textLength="250" x="934.5" y="220.8857">ProtectedVariableLibGetByName()</text><text fill="#000000" font-family="sans-serif" font-size="14" lengthAdjust="spacing" textLength="254" x="934.5" y="237.1826">ProtectedVariableLibGetByBuffer()</text><text fill="#000000" font-family="sans-serif" font-size="14" lengthAdjust="spacing" textLength="237" x="934.5" y="253.4795">ProtectedVariableLibGetByInfo()</text><text fill="#000000" font-family="sans-serif" font-size="14" lengthAdjust="spacing" textLength="228" x="934.5" y="269.7764">ProtectedVariableLibWriteInit()</text><text fill="#000000" font-family="sans-serif" font-size="14" lengthAdjust="spacing" textLength="216" x="934.5" y="286.0732">ProtectedVariableLibUpdate()</text><text fill="#000000" font-family="sans-serif" font-size="14" lengthAdjust="spacing" textLength="237" x="934.5" y="302.3701">ProtectedVariableLibWriteFinal()</text><text fill="#000000" font-family="sans-serif" font-size="14" lengthAdjust="spacing" textLength="221" x="934.5" y="318.667">ProtectedVariableLibReclaim()</text><text fill="#000000" font-family="sans-serif" font-size="14" lengthAdjust="spacing" textLength="215" x="934.5" y="334.9639">ProtectedVariableLibIsHmac()</text></g><!--MD5=[62a9ada6bce8d12c6bf62acd68507929]
class VariablePei--><g id="elem_VariablePei"><rect fill="#F1F1F1" height="48" id="VariablePei" rx="2.5" ry="2.5" style="stroke:#181818;stroke-width:0.5;" width="113" x="83.5" y="7"/><ellipse cx="98.5" cy="23" fill="#ADD1B2" rx="11" ry="11" style="stroke:#181818;stroke-width:1.0;"/><path d="M100.8438,18.6719 C99.9063,18.2344 99.3125,18.0938 98.4375,18.0938 C95.8125,18.0938 93.8125,20.1719 93.8125,22.8906 L93.8125,24.0156 C93.8125,26.5938 95.9219,28.4844 98.8125,28.4844 C100.0313,28.4844 101.1875,28.1875 101.9375,27.6406 C102.5156,27.2344 102.8438,26.7813 102.8438,26.3906 C102.8438,25.9375 102.4531,25.5469 101.9844,25.5469 C101.7656,25.5469 101.5625,25.625 101.375,25.8125 C100.9219,26.2969 100.9219,26.2969 100.7344,26.3906 C100.3125,26.6563 99.625,26.7813 98.8594,26.7813 C96.8125,26.7813 95.5156,25.6875 95.5156,23.9844 L95.5156,22.8906 C95.5156,21.1094 96.7656,19.7969 98.5,19.7969 C99.0781,19.7969 99.6875,19.9531 100.1563,20.2031 C100.6406,20.4844 100.8125,20.7031 100.9063,21.1094 C100.9688,21.5156 101,21.6406 101.1406,21.7656 C101.2813,21.9063 101.5156,22.0156 101.7344,22.0156 C102,22.0156 102.2656,21.875 102.4375,21.6563 C102.5469,21.5 102.5781,21.3125 102.5781,20.8906 L102.5781,19.4688 C102.5781,19.0313 102.5625,18.9063 102.4688,18.75 C102.3125,18.4844 102.0313,18.3438 101.7344,18.3438 C101.4375,18.3438 101.2344,18.4375 101.0156,18.75 L100.8438,18.6719 Z " fill="#000000"/><text fill="#000000" font-family="sans-serif" font-size="14" lengthAdjust="spacing" textLength="81" x="112.5" y="27.8467">VariablePei</text><line style="stroke:#181818;stroke-width:0.5;" x1="84.5" x2="195.5" y1="39" y2="39"/><line style="stroke:#181818;stroke-width:0.5;" x1="84.5" x2="195.5" y1="47" y2="47"/></g><!--MD5=[c74c7105d2acb3f87eb9eb5e7567207c]
class VariableSmm--><g id="elem_VariableSmm"><rect fill="#F1F1F1" height="48" id="VariableSmm" rx="2.5" ry="2.5" style="stroke:#181818;stroke-width:0.5;" width="128" x="319" y="7"/><ellipse cx="334" cy="23" fill="#ADD1B2" rx="11" ry="11" style="stroke:#181818;stroke-width:1.0;"/><path d="M336.3438,18.6719 C335.4063,18.2344 334.8125,18.0938 333.9375,18.0938 C331.3125,18.0938 329.3125,20.1719 329.3125,22.8906 L329.3125,24.0156 C329.3125,26.5938 331.4219,28.4844 334.3125,28.4844 C335.5313,28.4844 336.6875,28.1875 337.4375,27.6406 C338.0156,27.2344 338.3438,26.7813 338.3438,26.3906 C338.3438,25.9375 337.9531,25.5469 337.4844,25.5469 C337.2656,25.5469 337.0625,25.625 336.875,25.8125 C336.4219,26.2969 336.4219,26.2969 336.2344,26.3906 C335.8125,26.6563 335.125,26.7813 334.3594,26.7813 C332.3125,26.7813 331.0156,25.6875 331.0156,23.9844 L331.0156,22.8906 C331.0156,21.1094 332.2656,19.7969 334,19.7969 C334.5781,19.7969 335.1875,19.9531 335.6563,20.2031 C336.1406,20.4844 336.3125,20.7031 336.4063,21.1094 C336.4688,21.5156 336.5,21.6406 336.6406,21.7656 C336.7813,21.9063 337.0156,22.0156 337.2344,22.0156 C337.5,22.0156 337.7656,21.875 337.9375,21.6563 C338.0469,21.5 338.0781,21.3125 338.0781,20.8906 L338.0781,19.4688 C338.0781,19.0313 338.0625,18.9063 337.9688,18.75 C337.8125,18.4844 337.5313,18.3438 337.2344,18.3438 C336.9375,18.3438 336.7344,18.4375 336.5156,18.75 L336.3438,18.6719 Z " fill="#000000"/><text fill="#000000" font-family="sans-serif" font-size="14" lengthAdjust="spacing" textLength="96" x="348" y="27.8467">VariableSmm</text><line style="stroke:#181818;stroke-width:0.5;" x1="320" x2="446" y1="39" y2="39"/><line style="stroke:#181818;stroke-width:0.5;" x1="320" x2="446" y1="47" y2="47"/></g><!--MD5=[aff4c3907a9f87d66e5767ea58251519]
class VariableSmmRuntime--><g id="elem_VariableSmmRuntime"><rect fill="#F1F1F1" height="48" id="VariableSmmRuntime" rx="2.5" ry="2.5" style="stroke:#181818;stroke-width:0.5;" width="189" x="703.5" y="7"/><ellipse cx="718.5" cy="23" fill="#ADD1B2" rx="11" ry="11" style="stroke:#181818;stroke-width:1.0;"/><path d="M720.8438,18.6719 C719.9063,18.2344 719.3125,18.0938 718.4375,18.0938 C715.8125,18.0938 713.8125,20.1719 713.8125,22.8906 L713.8125,24.0156 C713.8125,26.5938 715.9219,28.4844 718.8125,28.4844 C720.0313,28.4844 721.1875,28.1875 721.9375,27.6406 C722.5156,27.2344 722.8438,26.7813 722.8438,26.3906 C722.8438,25.9375 722.4531,25.5469 721.9844,25.5469 C721.7656,25.5469 721.5625,25.625 721.375,25.8125 C720.9219,26.2969 720.9219,26.2969 720.7344,26.3906 C720.3125,26.6563 719.625,26.7813 718.8594,26.7813 C716.8125,26.7813 715.5156,25.6875 715.5156,23.9844 L715.5156,22.8906 C715.5156,21.1094 716.7656,19.7969 718.5,19.7969 C719.0781,19.7969 719.6875,19.9531 720.1563,20.2031 C720.6406,20.4844 720.8125,20.7031 720.9063,21.1094 C720.9688,21.5156 721,21.6406 721.1406,21.7656 C721.2813,21.9063 721.5156,22.0156 721.7344,22.0156 C722,22.0156 722.2656,21.875 722.4375,21.6563 C722.5469,21.5 722.5781,21.3125 722.5781,20.8906 L722.5781,19.4688 C722.5781,19.0313 722.5625,18.9063 722.4688,18.75 C722.3125,18.4844 722.0313,18.3438 721.7344,18.3438 C721.4375,18.3438 721.2344,18.4375 721.0156,18.75 L720.8438,18.6719 Z " fill="#000000"/><text fill="#000000" font-family="sans-serif" font-size="14" lengthAdjust="spacing" textLength="157" x="732.5" y="27.8467">VariableSmmRuntime</text><line style="stroke:#181818;stroke-width:0.5;" x1="704.5" x2="891.5" y1="39" y2="39"/><line style="stroke:#181818;stroke-width:0.5;" x1="704.5" x2="891.5" y1="47" y2="47"/></g><!--MD5=[5a0d628ad2276b46f4a60a30e790a22d]
class VariableRuntimeDxe--><g id="elem_VariableRuntimeDxe"><rect fill="#F1F1F1" height="48" id="VariableRuntimeDxe" rx="2.5" ry="2.5" style="stroke:#181818;stroke-width:0.5;" width="180" x="976" y="7"/><ellipse cx="991" cy="23" fill="#ADD1B2" rx="11" ry="11" style="stroke:#181818;stroke-width:1.0;"/><path d="M993.3438,18.6719 C992.4063,18.2344 991.8125,18.0938 990.9375,18.0938 C988.3125,18.0938 986.3125,20.1719 986.3125,22.8906 L986.3125,24.0156 C986.3125,26.5938 988.4219,28.4844 991.3125,28.4844 C992.5313,28.4844 993.6875,28.1875 994.4375,27.6406 C995.0156,27.2344 995.3438,26.7813 995.3438,26.3906 C995.3438,25.9375 994.9531,25.5469 994.4844,25.5469 C994.2656,25.5469 994.0625,25.625 993.875,25.8125 C993.4219,26.2969 993.4219,26.2969 993.2344,26.3906 C992.8125,26.6563 992.125,26.7813 991.3594,26.7813 C989.3125,26.7813 988.0156,25.6875 988.0156,23.9844 L988.0156,22.8906 C988.0156,21.1094 989.2656,19.7969 991,19.7969 C991.5781,19.7969 992.1875,19.9531 992.6563,20.2031 C993.1406,20.4844 993.3125,20.7031 993.4063,21.1094 C993.4688,21.5156 993.5,21.6406 993.6406,21.7656 C993.7813,21.9063 994.0156,22.0156 994.2344,22.0156 C994.5,22.0156 994.7656,21.875 994.9375,21.6563 C995.0469,21.5 995.0781,21.3125 995.0781,20.8906 L995.0781,19.4688 C995.0781,19.0313 995.0625,18.9063 994.9688,18.75 C994.8125,18.4844 994.5313,18.3438 994.2344,18.3438 C993.9375,18.3438 993.7344,18.4375 993.5156,18.75 L993.3438,18.6719 Z " fill="#000000"/><text fill="#000000" font-family="sans-serif" font-size="14" lengthAdjust="spacing" textLength="148" x="1005" y="27.8467">VariableRuntimeDxe</text><line style="stroke:#181818;stroke-width:0.5;" x1="977" x2="1155" y1="39" y2="39"/><line style="stroke:#181818;stroke-width:0.5;" x1="977" x2="1155" y1="47" y2="47"/></g><!--MD5=[f7ad10d6ad23dbaa194f179b13cc970e]
reverse link ProtectedVariableLib to PeiProtectedVariableLib--><g id="link_ProtectedVariableLib_PeiProtectedVariableLib"><path codeLine="1" d="M463.161,60.172 C397.219,77.635 320.825,99.595 290,115 C267.87,126.059 245.659,140.467 225.367,155.261 " fill="none" id="ProtectedVariableLib-backto-PeiProtectedVariableLib" style="stroke:#181818;stroke-width:1.0;"/><polygon fill="none" points="461.656,53.33,482.778,55.026,465.209,66.872,461.656,53.33" style="stroke:#181818;stroke-width:1.0;"/></g><!--MD5=[37faff4132c8cd6535e56800155cc563]
reverse link ProtectedVariableLib to SmmProtectedVariableLib--><g id="link_ProtectedVariableLib_SmmProtectedVariableLib"><path codeLine="9" d="M547.695,71.837 C537.463,86.764 525.3,104.509 512.913,122.583 " fill="none" id="ProtectedVariableLib-backto-SmmProtectedVariableLib" style="stroke:#181818;stroke-width:1.0;"/><polygon fill="none" points="542.021,67.733,559.102,55.194,553.569,75.649,542.021,67.733" style="stroke:#181818;stroke-width:1.0;"/></g><!--MD5=[206f7cf4a8bf26f0952047fc87923d71]
reverse link ProtectedVariableLib to SmmRuntimeProtectedVariableLib--><g id="link_ProtectedVariableLib_SmmRuntimeProtectedVariableLib"><path codeLine="21" d="M609.63,70.467 C640.131,104.347 684.376,153.494 715.216,187.752 " fill="none" id="ProtectedVariableLib-backto-SmmRuntimeProtectedVariableLib" style="stroke:#181818;stroke-width:1.0;"/><polygon fill="none" points="604.06,74.742,595.881,55.194,614.464,65.375,604.06,74.742" style="stroke:#181818;stroke-width:1.0;"/></g><!--MD5=[47bbdad8a8916a08f77bd3ddaf48b6c6]
reverse link ProtectedVariableLib to DxeRuntimeProtectedVariableLib--><g id="link_ProtectedVariableLib_DxeRuntimeProtectedVariableLib"><path codeLine="25" d="M687.762,57.701 C776.849,78.38 889.498,105.502 910,115 C916.06,117.807 922.125,120.862 928.157,124.11 " fill="none" id="ProtectedVariableLib-backto-DxeRuntimeProtectedVariableLib" style="stroke:#181818;stroke-width:1.0;"/><polygon fill="none" points="685.911,64.458,668.003,53.13,689.066,50.818,685.911,64.458" style="stroke:#181818;stroke-width:1.0;"/></g><!--MD5=[c34d98b7c83f7c30ecef94278112ecc3]
link VariablePei to PeiProtectedVariableLib--><g id="link_VariablePei_PeiProtectedVariableLib"><path codeLine="38" d="M140,55.194 C140,78.524 140,115.804 140,149.73 " fill="none" id="VariablePei-to-PeiProtectedVariableLib" style="stroke:#181818;stroke-width:1.0;stroke-dasharray:7.0,7.0;"/><polygon fill="#181818" points="140,155.144,144,146.144,140,150.144,136,146.144,140,155.144" style="stroke:#181818;stroke-width:1.0;"/></g><!--MD5=[3549229c0e2e90914bf4a986711ca864]
link VariableSmm to SmmProtectedVariableLib--><g id="link_VariableSmm_SmmProtectedVariableLib"><path codeLine="39" d="M389.881,55.194 C394.644,71.247 401.365,93.904 408.374,117.529 " fill="none" id="VariableSmm-to-SmmProtectedVariableLib" style="stroke:#181818;stroke-width:1.0;stroke-dasharray:7.0,7.0;"/><polygon fill="#181818" points="409.874,122.583,411.1499,112.8171,408.4523,117.7894,403.4801,115.0918,409.874,122.583" style="stroke:#181818;stroke-width:1.0;"/></g><!--MD5=[efc324cf811ab9a312c911151954752e]
link VariableSmmRuntime to SmmRuntimeProtectedVariableLib--><g id="link_VariableSmmRuntime_SmmRuntimeProtectedVariableLib"><path codeLine="40" d="M792.424,55.194 C784.907,86.46 771.367,142.781 761.817,182.505 " fill="none" id="VariableSmmRuntime-to-SmmRuntimeProtectedVariableLib" style="stroke:#181818;stroke-width:1.0;stroke-dasharray:7.0,7.0;"/><polygon fill="#181818" points="760.556,187.752,766.5487,179.9361,761.7246,182.8905,758.7703,178.0664,760.556,187.752" style="stroke:#181818;stroke-width:1.0;"/></g><!--MD5=[7a53e7c3eb4d950ee4f72724054f9c58]
link VariableRuntimeDxe to DxeRuntimeProtectedVariableLib--><g id="link_VariableRuntimeDxe_DxeRuntimeProtectedVariableLib"><path codeLine="41" d="M1066,55.194 C1066,69.521 1066,89.108 1066,109.948 " fill="none" id="VariableRuntimeDxe-to-DxeRuntimeProtectedVariableLib" style="stroke:#181818;stroke-width:1.0;stroke-dasharray:7.0,7.0;"/><polygon fill="#181818" points="1066,114.983,1070,105.983,1066,109.983,1062,105.983,1066,114.983" style="stroke:#181818;stroke-width:1.0;"/></g><!--MD5=[79c352a7b0b5c8a25163354309e8a0fa]
@startuml
ProtectedVariableLib <|- - PeiProtectedVariableLib
    PeiProtectedVariableLib : ProtectedVariableLibInitialize()
    PeiProtectedVariableLib : ProtectedVariableLibGetByName()
    PeiProtectedVariableLib : ProtectedVariableLibGetByBuffer()
    PeiProtectedVariableLib : ProtectedVariableLibGetByInfo()
    PeiProtectedVariableLib : ProtectedVariableLibFindNext()
    PeiProtectedVariableLib : ProtectedVariableLibFindNextEx()

    ProtectedVariableLib <|- - SmmProtectedVariableLib
    SmmProtectedVariableLib : ProtectedVariableLibInitialize()
    SmmProtectedVariableLib : ProtectedVariableLibFindNext()
    SmmProtectedVariableLib : ProtectedVariableLibFindNextEx()
    SmmProtectedVariableLib : ProtectedVariableLibGetByName()
    SmmProtectedVariableLib : ProtectedVariableLibGetByBuffer()
    SmmProtectedVariableLib : ProtectedVariableLibGetByInfo()
    SmmProtectedVariableLib : ProtectedVariableLibWriteInit()
    SmmProtectedVariableLib : ProtectedVariableLibWriteFinal()
    SmmProtectedVariableLib : ProtectedVariableLibUpdate()
    SmmProtectedVariableLib : ProtectedVariableLibReclaim()

    ProtectedVariableLib <|- - SmmRuntimeProtectedVariableLib
    SmmRuntimeProtectedVariableLib : ProtectedVariableLibInitialize()
    SmmRuntimeProtectedVariableLib : ProtectedVariableLibGetByName()

    ProtectedVariableLib <|- - DxeRuntimeProtectedVariableLib
    DxeRuntimeProtectedVariableLib : ProtectedVariableLibInitialize()
    DxeRuntimeProtectedVariableLib : ProtectedVariableLibFindNext()
    DxeRuntimeProtectedVariableLib : ProtectedVariableLibFindNextEx()
    DxeRuntimeProtectedVariableLib : ProtectedVariableLibGetByName()
    DxeRuntimeProtectedVariableLib : ProtectedVariableLibGetByBuffer()
    DxeRuntimeProtectedVariableLib : ProtectedVariableLibGetByInfo()
    DxeRuntimeProtectedVariableLib : ProtectedVariableLibWriteInit()
    DxeRuntimeProtectedVariableLib : ProtectedVariableLibUpdate()
    DxeRuntimeProtectedVariableLib : ProtectedVariableLibWriteFinal()
    DxeRuntimeProtectedVariableLib : ProtectedVariableLibReclaim()
    DxeRuntimeProtectedVariableLib : ProtectedVariableLibIsHmac()

    VariablePei ..> PeiProtectedVariableLib
    VariableSmm ..> SmmProtectedVariableLib
    VariableSmmRuntime ..> SmmRuntimeProtectedVariableLib
    VariableRuntimeDxe ..> DxeRuntimeProtectedVariableLib
@enduml

PlantUML version 1.2022.4beta2(Unknown compile time)
(GPL source distribution)
Java Runtime: Java(TM) SE Runtime Environment
JVM: Java HotSpot(TM) 64-Bit Server VM
Default Encoding: UTF-8
Language: en
Country: US
--></g></svg>